<svg xmlns="http://www.w3.org/2000/svg" xmlns:xlink="http://www.w3.org/1999/xlink" viewBox="605.53 588.42 52.07 43.68">
  <defs>
    <style>
      .cls-1,
      .cls-9 {
        fill: none;
      }

      .cls-2 {
        isolation: isolate;
      }

      .cls-11,
      .cls-1158,
      .cls-5,
      .cls-7 {
        fill: #fff;
      }

      .cls-1159,
      .cls-12 {
        stroke-miterlimit: 10;
      }

      .cls-1159,
      .cls-12,
      .cls-4 {
        fill: #c2d500;
      }

      .cls-11,
      .cls-1158,
      .cls-5,
      .cls-6,
      .cls-9 {
        stroke: #fff;
        stroke-linecap: round;
        stroke-linejoin: round;
      }

      .cls-5 {
        stroke-width: 6.1px;
      }

      .cls-6 {
        fill: #00aeef;
      }

      .cls-11,
      .cls-6,
      .cls-9 {
        stroke-width: 6.95px;
      }

      .cls-8 {
        fill: #00a6ce;
      }

      .cls-10 {
        clip-path: url(#clip-path);
      }

      .cls-1159,
      .cls-12 {
        stroke: #c2d500;
      }

      .cls-12 {
        stroke-width: 0.35px;
      }

      .cls-13 {
        clip-path: url(#clip-path-2);
      }
    </style>
    <clipPath id="clip-path-2" transform="translate(115.53 -16.81)">
      <path class="cls-1"
        d="M529.75,606.4h9.32v41.22h-9.84v-6c-2.42,4.86-8.73,7.16-13.49,7.28-9.94.26-22.44-7.49-22.54-21.87-.1-14.21,10.35-21.7,22.81-21.62,5.7,0,11.32,2.6,13.74,6.7Z">
      </path>
    </clipPath>
    <clipPath id="clip-path-3" transform="translate(115.53 -16.81)">
      <path class="cls-1"
        d="M530.75,612.63c-1,.29-2,.55-3,.79a18.53,18.53,0,0,0-6.45-7,21,21,0,0,0-13,0,18.55,18.55,0,0,0-6.46,7c-1-.24-2-.5-3-.79-.4.46-.78.93-1.15,1.42,1.1.34,2.24.66,3.39.93a28.58,28.58,0,0,0-2.49,11.12h-5.11c0,.28,0,.57,0,.85s0,.58,0,.86h5.11A28.62,28.62,0,0,0,501,638.93c-1.15.27-2.29.59-3.39.93.37.48.75,1,1.15,1.41,1-.29,2-.55,3-.78a18.55,18.55,0,0,0,6.46,7,21.18,21.18,0,0,0,13,0,18.53,18.53,0,0,0,6.45-7c1,.23,2,.49,3,.78.4-.45.78-.93,1.14-1.41-1.1-.34-2.23-.66-3.38-.93a29,29,0,0,0,2.5-11.12h5.1c0-.28,0-.57,0-.86s0-.57,0-.85H531a29,29,0,0,0-2.5-11.12c1.15-.27,2.28-.59,3.38-.93C531.53,613.56,531.15,613.09,530.75,612.63ZM526,613.78a55.66,55.66,0,0,1-5.81.82,23.81,23.81,0,0,0-2.55-8C521,607.59,523.91,610.18,526,613.78ZM510,626.1a71.57,71.57,0,0,1,.7-9.67c1.33.08,2.67.13,4,.13s2.72,0,4-.13a71.71,71.71,0,0,1,.69,9.67Zm9.46,1.71a71.83,71.83,0,0,1-.69,9.67c-1.32-.08-2.67-.13-4-.13s-2.7,0-4,.13a71.69,71.69,0,0,1-.7-9.67Zm-4.73-21.6c1.24,0,2.78,3.08,3.76,8.52-1.23.07-2.49.12-3.76.12s-2.52-.05-3.75-.12C512,609.29,513.5,606.21,514.74,606.21Zm-2.9.41a24.43,24.43,0,0,0-2.55,8,55.84,55.84,0,0,1-5.8-.82C505.58,610.18,508.51,607.59,511.84,606.62Zm-9.18,8.73a57.9,57.9,0,0,0,6.36.94,76.1,76.1,0,0,0-.7,9.81h-8.14A26.76,26.76,0,0,1,502.66,615.35Zm-2.48,12.46h8.14a76.23,76.23,0,0,0,.7,9.81,55.61,55.61,0,0,0-6.36.93A26.67,26.67,0,0,1,500.18,627.81Zm3.31,12.31a55.86,55.86,0,0,1,5.8-.81,24.44,24.44,0,0,0,2.55,8C508.51,646.32,505.58,643.73,503.49,640.12Zm11.25,7.58c-1.24,0-2.77-3.08-3.75-8.52,1.23-.07,2.48-.12,3.75-.12s2.53.05,3.76.12C517.52,644.62,516,647.7,514.74,647.7Zm2.9-.42a23.74,23.74,0,0,0,2.55-8,55.68,55.68,0,0,1,5.81.81C523.91,643.73,521,646.32,517.64,647.28Zm9.18-8.73a55.28,55.28,0,0,0-6.36-.93,76.18,76.18,0,0,0,.71-9.81h8.14A26.67,26.67,0,0,1,526.82,638.55Zm2.49-12.45h-8.14a76,76,0,0,0-.71-9.81,57.55,57.55,0,0,0,6.36-.94A26.76,26.76,0,0,1,529.31,626.1Z">
      </path>
    </clipPath>
  </defs>
  <g class="cls-2">
    <g id="Layer_1" data-name="Layer 1">
      <g class="cls-10">
        <path class="cls-12" d="M536.13,627a21.39,21.39,0,1,1-21.39-21.6A21.49,21.49,0,0,1,536.13,627Z"
          transform="translate(115.53 -16.81)"></path>
        <path class="cls-7"
          d="M530.75,612.63c-1,.29-2,.55-3,.79a18.53,18.53,0,0,0-6.45-7,21,21,0,0,0-13,0,18.55,18.55,0,0,0-6.46,7c-1-.24-2-.5-3-.79-.4.46-.78.93-1.15,1.42,1.1.34,2.24.66,3.39.93a28.58,28.58,0,0,0-2.49,11.12h-5.11c0,.28,0,.57,0,.85s0,.58,0,.86h5.11A28.62,28.62,0,0,0,501,638.93c-1.15.27-2.29.59-3.39.93.37.48.75,1,1.15,1.41,1-.29,2-.55,3-.78a18.55,18.55,0,0,0,6.46,7,21.18,21.18,0,0,0,13,0,18.53,18.53,0,0,0,6.45-7c1,.23,2,.49,3,.78.4-.45.78-.93,1.14-1.41-1.1-.34-2.23-.66-3.38-.93a29,29,0,0,0,2.5-11.12h5.1c0-.28,0-.57,0-.86s0-.57,0-.85H531a29,29,0,0,0-2.5-11.12c1.15-.27,2.28-.59,3.38-.93C531.53,613.56,531.15,613.09,530.75,612.63ZM526,613.78a55.66,55.66,0,0,1-5.81.82,23.81,23.81,0,0,0-2.55-8C521,607.59,523.91,610.18,526,613.78ZM510,626.1a71.57,71.57,0,0,1,.7-9.67c1.33.08,2.67.13,4,.13s2.72,0,4-.13a71.71,71.71,0,0,1,.69,9.67Zm9.46,1.71a71.83,71.83,0,0,1-.69,9.67c-1.32-.08-2.67-.13-4-.13s-2.7,0-4,.13a71.69,71.69,0,0,1-.7-9.67Zm-4.73-21.6c1.24,0,2.78,3.08,3.76,8.52-1.23.07-2.49.12-3.76.12s-2.52-.05-3.75-.12C512,609.29,513.5,606.21,514.74,606.21Zm-2.9.41a24.43,24.43,0,0,0-2.55,8,55.84,55.84,0,0,1-5.8-.82C505.58,610.18,508.51,607.59,511.84,606.62Zm-9.18,8.73a57.9,57.9,0,0,0,6.36.94,76.1,76.1,0,0,0-.7,9.81h-8.14A26.76,26.76,0,0,1,502.66,615.35Zm-2.48,12.46h8.14a76.23,76.23,0,0,0,.7,9.81,55.61,55.61,0,0,0-6.36.93A26.67,26.67,0,0,1,500.18,627.81Zm3.31,12.31a55.86,55.86,0,0,1,5.8-.81,24.44,24.44,0,0,0,2.55,8C508.51,646.32,505.58,643.73,503.49,640.12Zm11.25,7.58c-1.24,0-2.77-3.08-3.75-8.52,1.23-.07,2.48-.12,3.75-.12s2.53.05,3.76.12C517.52,644.62,516,647.7,514.74,647.7Zm2.9-.42a23.74,23.74,0,0,0,2.55-8,55.68,55.68,0,0,1,5.81.81C523.91,643.73,521,646.32,517.64,647.28Zm9.18-8.73a55.28,55.28,0,0,0-6.36-.93,76.18,76.18,0,0,0,.71-9.81h8.14A26.67,26.67,0,0,1,526.82,638.55Zm2.49-12.45h-8.14a76,76,0,0,0-.71-9.81,57.55,57.55,0,0,0,6.36-.94A26.76,26.76,0,0,1,529.31,626.1Z"
          transform="translate(115.53 -16.81)"></path>
      </g>
      <path class="cls-8"
        d="M529.45,611.5a14.26,14.26,0,0,0-5.11-4L516.89,616c14.48,1.54,12.78,25.19-2.57,23-5-.7-7.94-3.44-9.42-8.86l-7.94,9c4.63,6.8,10.48,9.82,18.65,9.76,4.59-.08,11.27-2.41,13.61-7.26v6h9.85V606.58h-9.62Z"
        transform="translate(115.53 -16.81)"></path>
      <g class="cls-13">
        <path class="cls-8"
          d="M488.5,648.54,487,647.16l36.62-40a14.14,14.14,0,0,1,1.56.83C525.32,608,488.5,648.54,488.5,648.54Z"
          transform="translate(115.53 -16.81)"></path>
      </g>
    </g>
  </g>
</svg>