<svg xmlns="http://www.w3.org/2000/svg" viewBox="134.38 95.08 94.36 23.94">
  <defs>
    <style>
      .cls-1 {
        fill: none;
        stroke: #000;
        stroke-width: 0.3px;
      }

      .cls-2 {
        fill: #454b4d;
      }

      .cls-3 {
        fill: #a1a89b;
      }

      .cls-4 {
        fill: #4d6578;
      }
    </style>
  </defs>
  <title>Recurso 1</title>
  <g id="Capa_2" data-name="Capa 2">
    <g id="Layer_1" data-name="Layer 1">
      <path class="cls-2"
        d="M207.15,116.88,190.39,96.61c-1.06-1.32-5-1.41-6.33-.14L177.3,103a.86.86,0,0,0-.13,1.24L188.72,118a4.43,4.43,0,0,0,3.22,1h12C205.94,119.15,208,117.92,207.15,116.88Z">
      </path>
      <path class="cls-3"
        d="M212.62,117.56c-.72.53-1.57.12-2.2-.51-.18-.19-7.08-8.48-7.08-8.48a.83.83,0,0,1,0-1.11l8.93-11.31c.81-.89,1.78-1.05,3.22-1.05,0,0,9.84,0,9.88,0,1.86-.18,4.52.64,2.84,2.65-1.07,1.28-2.05,2.65-3.08,4l-8.58,11.07-3.61,4.47A1.7,1.7,0,0,1,212.62,117.56Z">
      </path>
      <path class="cls-4"
        d="M190.42,97.66,174.22,118a4.39,4.39,0,0,1-3.22,1H159.05c-3.06.17-3.94-1-3.22-2.15l16.45-20.37a4.42,4.42,0,0,1,3.24-1l11.7,0C189.6,95.52,191.25,96.62,190.42,97.66Z">
      </path>
      <path class="cls-4"
        d="M152,117.62c1.38-1.7,2.69-3.44,4.07-5.14.51-.63,1.25-1.41.6-2.25s-2.12-.83-3.07-.83H142.8a4.4,4.4,0,0,0-3.21,1l-2.35,2.86-1.76,2.14c-.64.79-1.36,1.65-1,2.75.28.79,2.1.85,3,.85h10.82a7.21,7.21,0,0,0,2.17-.21,2,2,0,0,0,.71-.38,1.54,1.54,0,0,0,.29-.28Z">
      </path>
    </g>
  </g>
</svg>