<svg xmlns="http://www.w3.org/2000/svg" xmlns:xlink="http://www.w3.org/1999/xlink" viewBox="543.67 539.19 207.88 96.49">
  <defs>
    <style>
      .cls-1,
      .cls-9 {
        fill: none;
      }

      .cls-2 {
        isolation: isolate;
      }

      .cls-11,
      .cls-1158,
      .cls-3,
      .cls-5,
      .cls-7 {
        fill: #fff;
      }

      .cls-3 {
        stroke: #231f20;
      }

      .cls-1159,
      .cls-12,
      .cls-3 {
        stroke-miterlimit: 10;
      }

      .cls-1159,
      .cls-12,
      .cls-4 {
        fill: #c2d500;
      }

      .cls-11,
      .cls-1158,
      .cls-5,
      .cls-6,
      .cls-9 {
        stroke: #fff;
        stroke-linecap: round;
        stroke-linejoin: round;
      }

      .cls-5 {
        stroke-width: 6.1px;
      }

      .cls-6 {
        fill: #00aeef;
      }

      .cls-11,
      .cls-6,
      .cls-9 {
        stroke-width: 6.95px;
      }

      .cls-8 {
        fill: #00a6ce;
      }

      .cls-10 {
        clip-path: url(#clip-path);
      }

      .cls-1159,
      .cls-12 {
        stroke: #c2d500;
      }

      .cls-12 {
        stroke-width: 0.35px;
      }

      .cls-13 {
        clip-path: url(#clip-path-2);
      }

      .cls-14 {
        clip-path: url(#clip-path-3);
      }

      .cls-15 {
        opacity: 0.2;
      }

      .cls-16 {
        fill: #8dc63f;
      }

      .cls-17 {
        clip-path: url(#clip-path-4);
      }
    </style>
    <!-- <clipPath id="clip-path" transform="translate(115.53 -16.81)">
      <path class="cls-1"
        d="M495.71,638.87l28-31.73L529,601.3l-19.44-2s-22,8.57-22.55,10.15-1.59,10.62-1.15,11.77-1.32,8.58,1.32,12S495.71,638.87,495.71,638.87Z">
      </path>
    </clipPath> -->
    <clipPath id="clip-path-2" transform="translate(115.53 -16.81)">
      <path class="cls-1"
        d="M529.75,606.4h9.32v41.22h-9.84v-6c-2.42,4.86-8.73,7.16-13.49,7.28-9.94.26-22.44-7.49-22.54-21.87-.1-14.21,10.35-21.7,22.81-21.62,5.7,0,11.32,2.6,13.74,6.7Z">
      </path>
    </clipPath>
    <clipPath id="clip-path-3" transform="translate(115.53 -16.81)">
      <path class="cls-1"
        d="M530.75,612.63c-1,.29-2,.55-3,.79a18.53,18.53,0,0,0-6.45-7,21,21,0,0,0-13,0,18.55,18.55,0,0,0-6.46,7c-1-.24-2-.5-3-.79-.4.46-.78.93-1.15,1.42,1.1.34,2.24.66,3.39.93a28.58,28.58,0,0,0-2.49,11.12h-5.11c0,.28,0,.57,0,.85s0,.58,0,.86h5.11A28.62,28.62,0,0,0,501,638.93c-1.15.27-2.29.59-3.39.93.37.48.75,1,1.15,1.41,1-.29,2-.55,3-.78a18.55,18.55,0,0,0,6.46,7,21.18,21.18,0,0,0,13,0,18.53,18.53,0,0,0,6.45-7c1,.23,2,.49,3,.78.4-.45.78-.93,1.14-1.41-1.1-.34-2.23-.66-3.38-.93a29,29,0,0,0,2.5-11.12h5.1c0-.28,0-.57,0-.86s0-.57,0-.85H531a29,29,0,0,0-2.5-11.12c1.15-.27,2.28-.59,3.38-.93C531.53,613.56,531.15,613.09,530.75,612.63ZM526,613.78a55.66,55.66,0,0,1-5.81.82,23.81,23.81,0,0,0-2.55-8C521,607.59,523.91,610.18,526,613.78ZM510,626.1a71.57,71.57,0,0,1,.7-9.67c1.33.08,2.67.13,4,.13s2.72,0,4-.13a71.71,71.71,0,0,1,.69,9.67Zm9.46,1.71a71.83,71.83,0,0,1-.69,9.67c-1.32-.08-2.67-.13-4-.13s-2.7,0-4,.13a71.69,71.69,0,0,1-.7-9.67Zm-4.73-21.6c1.24,0,2.78,3.08,3.76,8.52-1.23.07-2.49.12-3.76.12s-2.52-.05-3.75-.12C512,609.29,513.5,606.21,514.74,606.21Zm-2.9.41a24.43,24.43,0,0,0-2.55,8,55.84,55.84,0,0,1-5.8-.82C505.58,610.18,508.51,607.59,511.84,606.62Zm-9.18,8.73a57.9,57.9,0,0,0,6.36.94,76.1,76.1,0,0,0-.7,9.81h-8.14A26.76,26.76,0,0,1,502.66,615.35Zm-2.48,12.46h8.14a76.23,76.23,0,0,0,.7,9.81,55.61,55.61,0,0,0-6.36.93A26.67,26.67,0,0,1,500.18,627.81Zm3.31,12.31a55.86,55.86,0,0,1,5.8-.81,24.44,24.44,0,0,0,2.55,8C508.51,646.32,505.58,643.73,503.49,640.12Zm11.25,7.58c-1.24,0-2.77-3.08-3.75-8.52,1.23-.07,2.48-.12,3.75-.12s2.53.05,3.76.12C517.52,644.62,516,647.7,514.74,647.7Zm2.9-.42a23.74,23.74,0,0,0,2.55-8,55.68,55.68,0,0,1,5.81.81C523.91,643.73,521,646.32,517.64,647.28Zm9.18-8.73a55.28,55.28,0,0,0-6.36-.93,76.18,76.18,0,0,0,.71-9.81h8.14A26.67,26.67,0,0,1,526.82,638.55Zm2.49-12.45h-8.14a76,76,0,0,0-.71-9.81,57.55,57.55,0,0,0,6.36-.94A26.76,26.76,0,0,1,529.31,626.1Z">
      </path>
    </clipPath>
  </defs>
  <g class="cls-2">
    <g id="Layer_1" data-name="Layer 1">
      <path class="cls-4"
        d="M446.57,556V568h11.72v9h-11.8v18.35c0,4,2.23,6,5.51,6a12.09,12.09,0,0,0,5.08-1.29l2.93,9a23.44,23.44,0,0,1-8.7,1.81c-9.21.34-15.25-4.91-15.25-15.5V577.06h-7.92v-9h7.92V557.08Z"
        transform="translate(115.53 -16.81)"></path>
      <path class="cls-4"
        d="M470.77,592.91c.69,5.26,5.25,9,12.66,9,3.88,0,9-1.47,11.36-4l6.72,6.63c-4.47,4.65-11.8,6.89-18.25,6.89-14.65,0-23.34-9-23.34-22.65,0-12.92,8.78-22.22,22.56-22.22,14.21,0,23.08,8.78,21.44,26.27Zm23.08-8.7c-.69-5.51-5-8.27-11-8.27-5.67,0-10.33,2.76-11.88,8.27Z"
        transform="translate(115.53 -16.81)"></path>
      <path class="cls-4"
        d="M 517.45 567.94 l 0.77 4.9 c 3.27 -5.25 7.66 -6 12 -6 a 16.16 16.16 0 0 1 10.94 4.05 L 536.38 580 a 10.44 10.44 0 0 0 -7.57 -2.76 c -5.51 0 -10.59 2.93 -10.59 10.77 v 14.99 C 514 602 512 602 508 604 V 567.94 Z"
        transform="translate(115.53 -16.81)"></path>
      <path class="cls-4"
        d="M 550.52 567.94 l 0.77 4.9 c 3.27 -5.25 7.66 -6 12 -6 a 16.18 16.18 0 0 1 10.94 4.05 L 569.46 580 a 10.5 10.5 0 0 0 -7.58 -2.76 c -5.51 0 -10.59 2.93 -10.59 10.77 v 15.99 H 540.78 V 567.94 Z"
        transform="translate(115.53 -16.81)"></path>
      <path class="cls-5"
        d="M516.79,639.64c15.5,0,16-23.35,1.53-24.88L504.9,630.18C506.13,636.16,511,639.64,516.79,639.64Z"
        transform="translate(115.53 -16.81)"></path>
      <!-- <path class="cls-6"
        d="M529.58,612.26c-1-1.82-3.25-3.34-5.21-4.47l-6,7c14.47,1.53,14,24.88-1.53,24.88-5.83,0-10.66-3.48-11.89-9.46l-7.76,8.93c3.56,6.56,10.3,9.93,18.47,9.87,4.59-.08,11.27-2.41,13.61-7.26v6h9.85V606.58h-9.49Z"
        transform="translate(115.53 -16.81)"></path> -->
      <!-- <polygon class="cls-6"
        points="690.07 594.61 690.07 589.77 657.1 589.77 657.1 599.04 675.3 599.04 655.6 626.67 655.6 630.93 690.24 630.93 690.24 620.91 671.13 620.91 690.07 594.61">
      </polygon> -->
      <!-- <path class="cls-6"
        d="M607.51,627.61c0,6.26-4.25,11.52-10.51,11.52-6.52,0-9.93-4.75-9.93-11V606.58H576.88V628.2c0,12.77,7.18,20.2,17,20.2,5.76,0,9.69-2,13.94-6.17l.67,5.58h9.1V606.58H607.51Z"
        transform="translate(115.53 -16.81)"></path> -->
      <!-- <rect class="cls-6" x="737.98" y="572.57" width="10.1" height="58.36"></rect> -->
      <path class="cls-7"
        d="M516.79,639.64c15.5,0,16-23.35,1.53-24.88L504.9,630.18C506.13,636.16,511,639.64,516.79,639.64Z"
        transform="translate(115.53 -16.81)"></path>
      <!-- U -->
      <path class="cls-8"
        d="M 607.51 627.61 c 0 6.26 -4.25 11.52 -10.51 11.52 c -6.52 0 -9.93 -4.75 -9.93 -11 C 587.07 621.7533 587.07 615.3767 587 614 C 583 614 580 612 576.88 609 V 628.2 c 0 12.77 7.18 20.2 17 20.2 c 5.76 0 9.69 -2 13.94 -6.17 l 0.67 5.58 h 9.1 V 613 H 607.51 Z"
        transform="translate(115.53 -16.81)"></path>
      <!-- <path class="cls-9"
        d="M607.35,567.94H617.6v42.45l-10.08,0v-6.2c-2.4,5-9.38,7.39-14.12,7.47-12.57.09-21.88-7.66-21.88-22.56,0-14.64,9.74-22.31,22.13-22.22,5.69,0,11.29,2.67,13.7,6.89Z"
        transform="translate(115.53 -16.81)"></path> -->
      <polygon class="cls-8"
        points="690.07 594.61 690.07 589.77 657.1 589.77 657.1 599.04 675.3 599.04 655.6 626.67 655.6 630.93 690.24 630.93 690.24 620.91 671.13 620.91 690.07 594.61">
      </polygon>
      <rect class="cls-8" x="737.98" y="572.57" width="10.1" height="58.36"></rect>
      <path class="cls-7"
        d="M515.7,639.78c15,0,15.45-22.6,1.48-24.09l-12.95,14.93C505.41,636.41,510.07,639.78,515.7,639.78Z"
        transform="translate(115.53 -16.81)"></path>
      <g class="cls-10">
        <!-- <path class="cls-11" d="M493.25,626.45a20.49,20.49,0,1,0,20.49-20.7A20.59,20.59,0,0,0,493.25,626.45Z"
          transform="translate(115.53 -16.81)"></path> -->
        <path class="cls-12" d="M536.13,627a21.39,21.39,0,1,1-21.39-21.6A21.49,21.49,0,0,1,536.13,627Z"
          transform="translate(115.53 -16.81)"></path>
        <path class="cls-7"
          d="M530.75,612.63c-1,.29-2,.55-3,.79a18.53,18.53,0,0,0-6.45-7,21,21,0,0,0-13,0,18.55,18.55,0,0,0-6.46,7c-1-.24-2-.5-3-.79-.4.46-.78.93-1.15,1.42,1.1.34,2.24.66,3.39.93a28.58,28.58,0,0,0-2.49,11.12h-5.11c0,.28,0,.57,0,.85s0,.58,0,.86h5.11A28.62,28.62,0,0,0,501,638.93c-1.15.27-2.29.59-3.39.93.37.48.75,1,1.15,1.41,1-.29,2-.55,3-.78a18.55,18.55,0,0,0,6.46,7,21.18,21.18,0,0,0,13,0,18.53,18.53,0,0,0,6.45-7c1,.23,2,.49,3,.78.4-.45.78-.93,1.14-1.41-1.1-.34-2.23-.66-3.38-.93a29,29,0,0,0,2.5-11.12h5.1c0-.28,0-.57,0-.86s0-.57,0-.85H531a29,29,0,0,0-2.5-11.12c1.15-.27,2.28-.59,3.38-.93C531.53,613.56,531.15,613.09,530.75,612.63ZM526,613.78a55.66,55.66,0,0,1-5.81.82,23.81,23.81,0,0,0-2.55-8C521,607.59,523.91,610.18,526,613.78ZM510,626.1a71.57,71.57,0,0,1,.7-9.67c1.33.08,2.67.13,4,.13s2.72,0,4-.13a71.71,71.71,0,0,1,.69,9.67Zm9.46,1.71a71.83,71.83,0,0,1-.69,9.67c-1.32-.08-2.67-.13-4-.13s-2.7,0-4,.13a71.69,71.69,0,0,1-.7-9.67Zm-4.73-21.6c1.24,0,2.78,3.08,3.76,8.52-1.23.07-2.49.12-3.76.12s-2.52-.05-3.75-.12C512,609.29,513.5,606.21,514.74,606.21Zm-2.9.41a24.43,24.43,0,0,0-2.55,8,55.84,55.84,0,0,1-5.8-.82C505.58,610.18,508.51,607.59,511.84,606.62Zm-9.18,8.73a57.9,57.9,0,0,0,6.36.94,76.1,76.1,0,0,0-.7,9.81h-8.14A26.76,26.76,0,0,1,502.66,615.35Zm-2.48,12.46h8.14a76.23,76.23,0,0,0,.7,9.81,55.61,55.61,0,0,0-6.36.93A26.67,26.67,0,0,1,500.18,627.81Zm3.31,12.31a55.86,55.86,0,0,1,5.8-.81,24.44,24.44,0,0,0,2.55,8C508.51,646.32,505.58,643.73,503.49,640.12Zm11.25,7.58c-1.24,0-2.77-3.08-3.75-8.52,1.23-.07,2.48-.12,3.75-.12s2.53.05,3.76.12C517.52,644.62,516,647.7,514.74,647.7Zm2.9-.42a23.74,23.74,0,0,0,2.55-8,55.68,55.68,0,0,1,5.81.81C523.91,643.73,521,646.32,517.64,647.28Zm9.18-8.73a55.28,55.28,0,0,0-6.36-.93,76.18,76.18,0,0,0,.71-9.81h8.14A26.67,26.67,0,0,1,526.82,638.55Zm2.49-12.45h-8.14a76,76,0,0,0-.71-9.81,57.55,57.55,0,0,0,6.36-.94A26.76,26.76,0,0,1,529.31,626.1Z"
          transform="translate(115.53 -16.81)"></path>
      </g>
      <path class="cls-8"
        d="M529.45,611.5a14.26,14.26,0,0,0-5.11-4L516.89,616c14.48,1.54,12.78,25.19-2.57,23-5-.7-7.94-3.44-9.42-8.86l-7.94,9c4.63,6.8,10.48,9.82,18.65,9.76,4.59-.08,11.27-2.41,13.61-7.26v6h9.85V606.58h-9.62Z"
        transform="translate(115.53 -16.81)"></path>
      <g class="cls-13">
        <path class="cls-8"
          d="M488.5,648.54,487,647.16l36.62-40a14.14,14.14,0,0,1,1.56.83C525.32,608,488.5,648.54,488.5,648.54Z"
          transform="translate(115.53 -16.81)"></path>
      </g>
      <path class="cls-4"
        d="M607.35,567.94v5.85c-2.41-4.22-8-6.89-13.7-6.89-12.39-.09-22.13,7.58-22.13,22.22,0,14.9,9.31,22.65,21.88,22.56,4.74-.08,11.72-2.49,14.13-7.49v6.2H617.6V567.94Zm2.22,10.87c-.52,1.77-8.27,26.59-24.07,22.59a10.36,10.36,0,0,1-5.32-4.43,3.27,3.27,0,0,0-.17-.31l-.09-.19.41-.05.84-.14,1-.16c.33-.06.67-.14,1-.22s.73-.15,1.11-.25l1.18-.31.61-.17.62-.19,1.27-.42c.85-.32,1.73-.62,2.6-1s1.74-.8,2.6-1.21,1.69-.89,2.49-1.4,1.57-1,2.32-1.5l1-.78.52-.37c.15-.14.31-.27.47-.4l.92-.76c.29-.24.56-.5.83-.73s.52-.46.75-.68l.65-.65c.2-.2.4-.38.57-.56l.46-.5c.27-.3.47-.52.63-.68-.18.13-.43.31-.73.57l-.52.44-.64.48-.71.56c-.25.19-.53.38-.82.58l-.89.62c-.32.2-.65.4-1,.62l-.52.33-.54.3-1.11.63c-.77.39-1.56.82-2.4,1.17s-1.68.71-2.53,1-1.73.61-2.6.84-1.72.45-2.54.66l-1.24.23-.59.12-.59.09-1.12.15c-.36.05-.72.07-1.05.1l-1,.1-.85,0-.75,0h-1.3a10.23,10.23,0,0,1,8.78-11.59,34.42,34.42,0,0,1,5.45-.24c11.87.4,15.29-1.37,16.15-2l.26-.24h0s.14-.17.12-.11l-.12.12a0,0,0,0,1,0,0Z"
        transform="translate(115.53 -16.81)"></path>
    </g>
  </g>
</svg>