<svg xmlns="http://www.w3.org/2000/svg" viewBox="127.43 95.08 105.93 80.53">
  <defs>
    <style>
      .cls-1 {
        fill: none;
        stroke: #000;
        stroke-width: 0.3px;
      }

      .cls-2 {
        fill: #454b4d;
      }

      .cls-3 {
        fill: #a1a89b;
      }

      .cls-4 {
        fill: #4d6578;
      }
    </style>
  </defs>
  <title>Recurso 1</title>
  <g id="Capa_2" data-name="Capa 2">
    <g id="Layer_1" data-name="Layer 1">
      <path class="cls-2"
        d="M207.15,116.88,190.39,96.61c-1.06-1.32-5-1.41-6.33-.14L177.3,103a.86.86,0,0,0-.13,1.24L188.72,118a4.43,4.43,0,0,0,3.22,1h12C205.94,119.15,208,117.92,207.15,116.88Z">
      </path>
      <path class="cls-3"
        d="M212.62,117.56c-.72.53-1.57.12-2.2-.51-.18-.19-7.08-8.48-7.08-8.48a.83.83,0,0,1,0-1.11l8.93-11.31c.81-.89,1.78-1.05,3.22-1.05,0,0,9.84,0,9.88,0,1.86-.18,4.52.64,2.84,2.65-1.07,1.28-2.05,2.65-3.08,4l-8.58,11.07-3.61,4.47A1.7,1.7,0,0,1,212.62,117.56Z">
      </path>
      <path class="cls-4"
        d="M190.42,97.66,174.22,118a4.39,4.39,0,0,1-3.22,1H159.05c-3.06.17-3.94-1-3.22-2.15l16.45-20.37a4.42,4.42,0,0,1,3.24-1l11.7,0C189.6,95.52,191.25,96.62,190.42,97.66Z">
      </path>
      <path class="cls-4"
        d="M152,117.62c1.38-1.7,2.69-3.44,4.07-5.14.51-.63,1.25-1.41.6-2.25s-2.12-.83-3.07-.83H142.8a4.4,4.4,0,0,0-3.21,1l-2.35,2.86-1.76,2.14c-.64.79-1.36,1.65-1,2.75.28.79,2.1.85,3,.85h10.82a7.21,7.21,0,0,0,2.17-.21,2,2,0,0,0,.71-.38,1.54,1.54,0,0,0,.29-.28Z">
      </path>
      <path class="cls-2"
        d="M143.12,137.2a2.65,2.65,0,0,1-2.2,1,3.94,3.94,0,0,1-.8-.08,2.81,2.81,0,0,1-.67-.25,3.85,3.85,0,0,1-.6-.39c-.19-.15-.38-.32-.57-.5l.49-.54a5.16,5.16,0,0,0,.51.46,3.57,3.57,0,0,0,.51.32,2.06,2.06,0,0,0,.54.2,2.25,2.25,0,0,0,.6.07,2,2,0,0,0,1.62-.73,3.74,3.74,0,0,0,.59-2.34v-4.32h.76v4.33A4.4,4.4,0,0,1,143.12,137.2Z">
      </path>
      <path class="cls-2"
        d="M150.89,138l-1.16-2.6h-3.59L145,138h-.8l3.51-8h.48l3.52,8Zm-2.24-5.1-.36-.81q-.18-.41-.36-.84c-.11.28-.23.55-.34.81s-.22.53-.34.8l-.78,1.82h2.94Z">
      </path>
      <path class="cls-2"
        d="M154.05,138h-.55l-3.68-8h.8l1.74,3.77c.24.52.48,1,.71,1.54s.47,1,.7,1.55c.24-.54.48-1.05.71-1.56s.46-1,.71-1.53l1.74-3.77h.8Z">
      </path>
      <path class="cls-2" d="M159.11,138v-8h.75v8Z"></path>
      <path class="cls-2" d="M161.42,138v-8h5.4v.71h-4.66v2.74H166v.71h-3.79v3.07H167V138Z"></path>
      <path class="cls-2"
        d="M174.68,138l-3.32-3.24h-2.45V138h-.74v-8h2.75a5.74,5.74,0,0,1,3,.6,1.88,1.88,0,0,1,1,1.7,1.92,1.92,0,0,1-.2.87,2.39,2.39,0,0,1-.54.7,3.09,3.09,0,0,1-.8.5,4,4,0,0,1-1,.28l3.42,3.31Zm-.69-6.21a1.07,1.07,0,0,0-.45-.51,2.92,2.92,0,0,0-1-.38,7.87,7.87,0,0,0-1.72-.15h-1.92v3.3h2.62a3.84,3.84,0,0,0,1.14-.15,2.59,2.59,0,0,0,.8-.39A1.66,1.66,0,0,0,174,133a1.39,1.39,0,0,0,0-1.17Z">
      </path>
      <path class="cls-2"
        d="M185.56,138c-1.3-1.61-2.39-3-3.29-4.07l-2.16-2.68c0,.68,0,1.58,0,2.68V138h-.75v-8h.67l3.3,4.08,2.15,2.66c0-.68,0-1.57,0-2.67v-4.07h.75v8Z">
      </path>
      <path class="cls-2" d="M187.79,138v-8h.75v8Z"></path>
      <path class="cls-2" d="M190.09,138v-8h5.4v.71h-4.65v2.74h3.78v.71h-3.78v3.07h4.8V138Z"></path>
      <path class="cls-2"
        d="M202.72,136.63a2.07,2.07,0,0,1-.54.64,2.67,2.67,0,0,1-.77.4,5.65,5.65,0,0,1-.92.24,7.79,7.79,0,0,1-1,.09l-.9,0h-2.28v-8h2.32a5.76,5.76,0,0,1,2.86.54,1.67,1.67,0,0,1,.9,1.48,1.72,1.72,0,0,1-.3,1,1.92,1.92,0,0,1-.92.69,2.8,2.8,0,0,1,1.24.71,1.7,1.7,0,0,1,.47,1.23A1.93,1.93,0,0,1,202.72,136.63Zm-1-4.56a1,1,0,0,0-.13-.47,1.21,1.21,0,0,0-.47-.41,3.27,3.27,0,0,0-.94-.29,7.8,7.8,0,0,0-1.51-.12H197.1v2.71h1.55a7.79,7.79,0,0,0,1.64-.14,2.72,2.72,0,0,0,.92-.35.92.92,0,0,0,.38-.45,1.45,1.45,0,0,0,.09-.48Zm.3,3.05a1.47,1.47,0,0,0-.57-.49,4.23,4.23,0,0,0-1-.32,8.72,8.72,0,0,0-1.57-.12h-1.7v3.12h1.53c.46,0,.9,0,1.33-.05a4.5,4.5,0,0,0,1.13-.24,1.89,1.89,0,0,0,.79-.48,1.13,1.13,0,0,0,.29-.81A1.11,1.11,0,0,0,202,135.12Z">
      </path>
      <path class="cls-2" d="M204.75,138v-8h.74v7.23h5V138Z"></path>
      <path class="cls-2" d="M211.06,138v-8h5.4v.71h-4.65v2.74h3.78v.71h-3.78v3.07h4.8V138Z"></path>
      <path class="cls-2"
        d="M224,136.71a2.51,2.51,0,0,1-.74.75,4,4,0,0,1-1.16.52,5.28,5.28,0,0,1-1.47.19,7.5,7.5,0,0,1-1.22-.09,4.85,4.85,0,0,1-1-.27,3.26,3.26,0,0,1-.8-.45,4.23,4.23,0,0,1-.66-.61l.58-.49a3,3,0,0,0,1.19.89,4.89,4.89,0,0,0,1.9.32,4.44,4.44,0,0,0,1.27-.17,3.46,3.46,0,0,0,1-.43,1.56,1.56,0,0,0,.49-.5,1.11,1.11,0,0,0,.18-.61,1,1,0,0,0-.21-.68,1.75,1.75,0,0,0-.45-.38,2.08,2.08,0,0,0-.3-.13c-.11,0-.25-.09-.42-.15l-.66-.17-1-.22-1-.23-.64-.17a3.41,3.41,0,0,1-.42-.14l-.31-.14a1.72,1.72,0,0,1-.32-.23,1.19,1.19,0,0,1-.28-.31,1.63,1.63,0,0,1-.2-.42,2.11,2.11,0,0,1-.07-.52,1.58,1.58,0,0,1,.24-.81,1.73,1.73,0,0,1,.75-.68,3.74,3.74,0,0,1,1.07-.35,7.84,7.84,0,0,1,1.35-.11,6.79,6.79,0,0,1,1.17.09,3.66,3.66,0,0,1,.9.27,2.51,2.51,0,0,1,.68.45,3.4,3.4,0,0,1,.51.66l-.66.35a1.84,1.84,0,0,0-.88-.83,3.33,3.33,0,0,0-.73-.21,5.66,5.66,0,0,0-1-.08,7.34,7.34,0,0,0-1.19.1,3.26,3.26,0,0,0-.88.28,1,1,0,0,0-.59.9.84.84,0,0,0,.15.5,1,1,0,0,0,.4.34l.32.13a4.09,4.09,0,0,0,.44.13,6.58,6.58,0,0,0,.64.16l.94.21.85.19.66.18a3.16,3.16,0,0,1,.52.18,2.86,2.86,0,0,1,.42.24,2.39,2.39,0,0,1,.33.25,2.52,2.52,0,0,1,.3.35,2.56,2.56,0,0,1,.21.44,1.81,1.81,0,0,1,.07.54A1.84,1.84,0,0,1,224,136.71Z">
      </path>
      <path class="cls-4"
        d="M145.29,146.44l-.65-1.45h-2l-.65,1.45h-.44l2-4.44h.26l2,4.44ZM144,143.6c-.06-.15-.13-.31-.2-.46l-.2-.46-.19.45c-.06.15-.12.3-.19.44l-.43,1h1.64Z">
      </path>
      <path class="cls-4"
        d="M150.1,146.44l-1.85-1.81h-1.36v1.81h-.42V142H148a3.14,3.14,0,0,1,1.66.34,1.05,1.05,0,0,1,.53.95,1.13,1.13,0,0,1-.11.48,1.4,1.4,0,0,1-.3.39,2,2,0,0,1-.45.28,3,3,0,0,1-.55.16l1.9,1.84Zm-.39-3.46a.61.61,0,0,0-.25-.29,2,2,0,0,0-.55-.21,4.84,4.84,0,0,0-1-.08h-1.06v1.84h1.46a2,2,0,0,0,.63-.09,1.38,1.38,0,0,0,.44-.21.88.88,0,0,0,.27-.31.72.72,0,0,0,.09-.34A.7.7,0,0,0,149.71,143Z">
      </path>
      <path class="cls-4"
        d="M155.47,145a2.25,2.25,0,0,1-.34.63,1.84,1.84,0,0,1-.51.45,2.34,2.34,0,0,1-.62.29,1.46,1.46,0,0,0,.21.16.62.62,0,0,0,.26.1,1.86,1.86,0,0,0,.34.05h.33l.25,0,0,.35a2.14,2.14,0,0,1-.31.06h-.38l-.39-.06a1.52,1.52,0,0,1-.34-.15l-.27-.21-.19-.2-.18,0h-.19a2.74,2.74,0,0,1-.9-.15,2.13,2.13,0,0,1-.78-.43,2.27,2.27,0,0,1-.54-.71,2.46,2.46,0,0,1-.2-1,2.39,2.39,0,0,1,.2-1,2.2,2.2,0,0,1,.54-.72,2.29,2.29,0,0,1,.78-.43,3,3,0,0,1,.9-.14,3.09,3.09,0,0,1,.91.14,2.16,2.16,0,0,1,.77.43,2,2,0,0,1,.54.72,2.25,2.25,0,0,1,.21,1A2.3,2.3,0,0,1,155.47,145Zm-.29-.81a2,2,0,0,0-.16-.85,1.68,1.68,0,0,0-.45-.59,1.83,1.83,0,0,0-.64-.36,2.74,2.74,0,0,0-.76-.11,2.68,2.68,0,0,0-.76.11,1.92,1.92,0,0,0-.64.36,1.66,1.66,0,0,0-.44.59,2,2,0,0,0-.17.85,2.06,2.06,0,0,0,.32,1.11l.28-.06a2,2,0,0,1,.36,0l.4,0a1.15,1.15,0,0,1,.37.12.82.82,0,0,1,.2.12,1.09,1.09,0,0,1,.17.13l.15.13.1.11.17.2a2.3,2.3,0,0,0,.59-.21,1.71,1.71,0,0,0,.47-.37,1.77,1.77,0,0,0,.32-.55,2,2,0,0,0,.12-.72ZM153.09,146l-.11-.1-.12-.08-.14-.08a1,1,0,0,0-.46-.1,3.28,3.28,0,0,0-.46,0,1.73,1.73,0,0,0,.63.33,2.25,2.25,0,0,0,.74.12h0Z">
      </path>
      <path class="cls-4"
        d="M160,145.52a1.41,1.41,0,0,1-.32.58,1.16,1.16,0,0,1-.55.32,3.12,3.12,0,0,1-.8.1,3,3,0,0,1-.78-.1,1.16,1.16,0,0,1-.55-.32,1.41,1.41,0,0,1-.32-.58,3.42,3.42,0,0,1-.1-.91V142H157v2.6a3,3,0,0,0,.07.72,1.07,1.07,0,0,0,.21.47.91.91,0,0,0,.41.26,2.35,2.35,0,0,0,.65.08,2.45,2.45,0,0,0,.67-.08.91.91,0,0,0,.41-.26,1.07,1.07,0,0,0,.21-.47,3.66,3.66,0,0,0,.06-.72V142h.42v2.61A3.42,3.42,0,0,1,160,145.52Z">
      </path>
      <path class="cls-4" d="M161,146.44V142h.42v4.44Z"></path>
      <path class="cls-4" d="M164.09,142.4v4h-.42v-4H162V142h3.82v.4Z"></path>
      <path class="cls-4" d="M166.3,146.44V142h3v.4h-2.6v1.52h2.11v.4h-2.11V146h2.68v.41Z"></path>
      <path class="cls-4"
        d="M173.29,145.78a2.21,2.21,0,0,1-.43.37,1.93,1.93,0,0,1-.54.26,2,2,0,0,1-.67.11,2.66,2.66,0,0,1-1-.17,2.44,2.44,0,0,1-.71-.43,2.22,2.22,0,0,1-.53-.75,2.4,2.4,0,0,1-.19-.95,2.44,2.44,0,0,1,.19-.95,2.16,2.16,0,0,1,.5-.72,2.35,2.35,0,0,1,.77-.47,3,3,0,0,1,1-.16,2.21,2.21,0,0,1,.59.08,2,2,0,0,1,.49.21,2.25,2.25,0,0,1,.41.34,2.88,2.88,0,0,1,.33.43l-.35.21a2,2,0,0,0-.6-.63,1.42,1.42,0,0,0-.87-.25,2.58,2.58,0,0,0-.73.11,1.86,1.86,0,0,0-.64.33,1.66,1.66,0,0,0-.47.6,2.08,2.08,0,0,0-.17.87,1.83,1.83,0,0,0,.17.84,1.67,1.67,0,0,0,.44.6,1.93,1.93,0,0,0,.63.35,2.34,2.34,0,0,0,.74.12,1.69,1.69,0,0,0,.56-.09,1.92,1.92,0,0,0,.45-.24,2.3,2.3,0,0,0,.37-.32,4,4,0,0,0,.27-.34l.33.23A4.1,4.1,0,0,1,173.29,145.78Z">
      </path>
      <path class="cls-4" d="M175.15,142.4v4h-.41v-4H173V142h3.83v.4Z"></path>
      <path class="cls-4"
        d="M181,145.23a2.2,2.2,0,0,1-.54.72,2.32,2.32,0,0,1-.77.43,3.14,3.14,0,0,1-.91.14,2.74,2.74,0,0,1-.9-.15,2.06,2.06,0,0,1-.78-.43,2.27,2.27,0,0,1-.54-.71,2.46,2.46,0,0,1-.2-1,2.39,2.39,0,0,1,.2-1,2.13,2.13,0,0,1,1.32-1.15,3,3,0,0,1,.9-.14,3.14,3.14,0,0,1,.91.14,2.16,2.16,0,0,1,.77.43,2.2,2.2,0,0,1,.54.72,2.25,2.25,0,0,1,.2,1A2.28,2.28,0,0,1,181,145.23Zm-.21-1a2,2,0,0,0-.17-.85,1.55,1.55,0,0,0-.44-.59,1.92,1.92,0,0,0-.64-.36,2.79,2.79,0,0,0-.76-.11,2.68,2.68,0,0,0-.76.11,1.83,1.83,0,0,0-.64.36,1.66,1.66,0,0,0-.44.59,2.19,2.19,0,0,0,0,1.69,1.86,1.86,0,0,0,.44.59,1.74,1.74,0,0,0,.64.35,2.42,2.42,0,0,0,.76.12,2.37,2.37,0,0,0,.76-.12,1.74,1.74,0,0,0,.64-.35,1.72,1.72,0,0,0,.44-.59,2,2,0,0,0,.16-.84Z">
      </path>
      <path class="cls-4" d="M183,144.52v-.39h1.93v.39Z"></path>
      <path class="cls-4"
        d="M191,145.52a1.31,1.31,0,0,1-.32.58,1.12,1.12,0,0,1-.55.32,3.06,3.06,0,0,1-.8.1,3,3,0,0,1-.78-.1,1.13,1.13,0,0,1-.54-.32,1.31,1.31,0,0,1-.32-.58,3.38,3.38,0,0,1-.11-.91V142H188v2.6a3.66,3.66,0,0,0,.06.72,1.07,1.07,0,0,0,.21.47.91.91,0,0,0,.41.26,2.35,2.35,0,0,0,.65.08,2.4,2.4,0,0,0,.67-.08.86.86,0,0,0,.41-.26.89.89,0,0,0,.21-.47,3.66,3.66,0,0,0,.06-.72V142h.42v2.61A3.42,3.42,0,0,1,191,145.52Z">
      </path>
      <path class="cls-4"
        d="M195.62,146.44l-1.85-1.81h-1.36v1.81H192V142h1.53a3.14,3.14,0,0,1,1.66.34,1.05,1.05,0,0,1,.53.95,1.13,1.13,0,0,1-.11.48,1.24,1.24,0,0,1-.3.39,2,2,0,0,1-.45.28,3,3,0,0,1-.55.16l1.9,1.84Zm-.39-3.46a.61.61,0,0,0-.25-.29,2,2,0,0,0-.55-.21,4.84,4.84,0,0,0-1-.08h-1.06v1.84h1.46a2,2,0,0,0,.63-.09,1.29,1.29,0,0,0,.44-.21.88.88,0,0,0,.27-.31.72.72,0,0,0,.09-.34A.7.7,0,0,0,195.23,143Z">
      </path>
      <path class="cls-4"
        d="M200.22,145.66a1,1,0,0,1-.29.35,1.53,1.53,0,0,1-.44.23,2.72,2.72,0,0,1-.51.13,3.07,3.07,0,0,1-.53,0l-.5,0h-1.27V142H198a3.07,3.07,0,0,1,1.59.31.91.91,0,0,1,.51.82,1,1,0,0,1-.17.56,1.13,1.13,0,0,1-.52.39,1.46,1.46,0,0,1,.69.39.93.93,0,0,1,.26.69A1,1,0,0,1,200.22,145.66Zm-.57-2.54a.51.51,0,0,0-.07-.26.59.59,0,0,0-.26-.23,2.11,2.11,0,0,0-.52-.17,4.88,4.88,0,0,0-.85-.06h-.86v1.51H198a4.48,4.48,0,0,0,.92-.08,1.41,1.41,0,0,0,.5-.19.49.49,0,0,0,.22-.26.85.85,0,0,0,.05-.26Zm.17,1.7a.72.72,0,0,0-.32-.27,1.89,1.89,0,0,0-.58-.18,4.41,4.41,0,0,0-.88-.07h-.95V146H198c.25,0,.5,0,.74,0a3.32,3.32,0,0,0,.63-.13,1.27,1.27,0,0,0,.44-.27.64.64,0,0,0,.16-.45A.59.59,0,0,0,199.82,144.82Z">
      </path>
      <path class="cls-4"
        d="M204.25,146.44,203.6,145h-2l-.64,1.45h-.44l1.95-4.44h.26l2,4.44ZM203,143.6c-.07-.15-.14-.31-.2-.46s-.13-.3-.2-.46c-.07.15-.13.3-.19.45s-.12.3-.19.44l-.44,1h1.64Z">
      </path>
      <path class="cls-4"
        d="M208.65,146.44c-.72-.9-1.33-1.66-1.83-2.27l-1.21-1.49c0,.38,0,.88,0,1.49s0,1.37,0,2.27h-.43V142h.38c.72.9,1.33,1.66,1.84,2.27l1.19,1.49v-1.49c0-.62,0-1.37,0-2.27H209v4.44Z">
      </path>
      <path class="cls-4" d="M209.89,146.44V142h.42v4.44Z"></path>
      <path class="cls-4"
        d="M214.75,145.7a1.4,1.4,0,0,1-.42.42,2.35,2.35,0,0,1-.64.29,3,3,0,0,1-.82.11,4.61,4.61,0,0,1-.68-.05,4,4,0,0,1-.55-.15,2.13,2.13,0,0,1-.44-.26,2,2,0,0,1-.37-.34l.32-.27a1.69,1.69,0,0,0,.67.49,2.43,2.43,0,0,0,1.05.19,2.48,2.48,0,0,0,.71-.1,1.85,1.85,0,0,0,.53-.24.87.87,0,0,0,.27-.27.64.64,0,0,0,.1-.35.58.58,0,0,0-.11-.37,1.05,1.05,0,0,0-.26-.22l-.16-.07-.24-.08-.36-.1-.55-.12-.55-.13-.36-.09-.24-.08-.17-.08a1.88,1.88,0,0,1-.18-.12.65.65,0,0,1-.15-.18,1,1,0,0,1-.11-.23.92.92,0,0,1,0-.29.86.86,0,0,1,.13-.45,1,1,0,0,1,.42-.38,2,2,0,0,1,.59-.2,4.42,4.42,0,0,1,.76-.06,4.19,4.19,0,0,1,.65.05,1.94,1.94,0,0,1,.5.15,1.67,1.67,0,0,1,.38.25,2.11,2.11,0,0,1,.28.37l-.37.19a1,1,0,0,0-.2-.26,1.06,1.06,0,0,0-.29-.2,1.9,1.9,0,0,0-.4-.12,4.29,4.29,0,0,0-.55,0,3.55,3.55,0,0,0-.67.06,2.2,2.2,0,0,0-.49.15.57.57,0,0,0-.33.5.45.45,0,0,0,.09.28.51.51,0,0,0,.22.19l.18.07.24.08.36.09.52.11.48.11.36.1a1.63,1.63,0,0,1,.29.1,1.36,1.36,0,0,1,.24.13l.18.14a1.12,1.12,0,0,1,.17.2.88.88,0,0,1,.11.24.94.94,0,0,1,.05.3A1,1,0,0,1,214.75,145.7Z">
      </path>
      <path class="cls-4" d="M216.82,142.4v4h-.41v-4h-1.7V142h3.82v.4Z"></path>
      <path class="cls-4"
        d="M221.11,146.44l-.65-1.45h-2l-.65,1.45h-.44l2-4.44h.27l2,4.44Zm-1.25-2.84c-.07-.15-.13-.31-.2-.46l-.2-.46-.19.45c-.06.15-.12.3-.19.44l-.43,1h1.64Z">
      </path>
      <path class="cls-4"
        d="M132.09,174.29h-.26l-.72-1.34-.3-.54-.3-.55c-.09.19-.19.37-.28.54l-.29.54-.73,1.35H129l-1.57-2.91h.39l.72,1.34.29.56.3.55.65-1.2.67-1.25h.23l.74,1.35.3.56.29.54c.11-.18.2-.37.3-.55l.29-.55.73-1.35h.38Z">
      </path>
      <path class="cls-4"
        d="M140.21,174.29H140l-.72-1.34-.3-.54-.3-.55c-.09.19-.19.37-.28.54l-.29.54-.73,1.35h-.26l-1.57-2.91h.39l.72,1.34.29.56c.1.18.21.37.3.55l.65-1.2.67-1.25h.23l.74,1.35.3.56.29.54c.11-.18.2-.37.3-.55l.29-.55.73-1.35h.38Z">
      </path>
      <path class="cls-4"
        d="M148.33,174.29h-.26l-.72-1.34-.3-.54-.3-.55c-.09.19-.19.37-.28.54l-.29.54-.73,1.35h-.26l-1.57-2.91H144l.72,1.34c.1.19.19.37.3.56l.29.55.65-1.2.67-1.25h.23l.74,1.35.3.56c.1.18.2.36.29.54.11-.18.2-.37.3-.55l.29-.55.73-1.35h.38Z">
      </path>
      <path class="cls-4" d="M151.48,174.29v-.65h.35v.65Z"></path>
      <path class="cls-4"
        d="M155.38,174.89a.84.84,0,0,1-.19.33,1.33,1.33,0,0,1-1,.38,1.66,1.66,0,0,1-.32,0,1.29,1.29,0,0,1-.28-.08l-.27-.12a2.68,2.68,0,0,1-.32-.22l.21-.28.14.12.13.08.11.06.11,0a.47.47,0,0,0,.19.06l.14,0h.39l.2,0a.64.64,0,0,0,.19-.08.48.48,0,0,0,.16-.13.66.66,0,0,0,.12-.22,1.62,1.62,0,0,0,0-.38v-3h.34v3A1.7,1.7,0,0,1,155.38,174.89Zm-.28-3.83v-.65h.34v.64Z">
      </path>
      <path class="cls-4"
        d="M160.55,174.29a.48.48,0,0,1-.11-.15.75.75,0,0,1-.07-.12,1.4,1.4,0,0,1-.26.16,1.72,1.72,0,0,1-.29.11l-.26.05h-.22a2.06,2.06,0,0,1-.6-.07,1.18,1.18,0,0,1-.39-.19.74.74,0,0,1-.22-.28.87.87,0,0,1-.06-.32.78.78,0,0,1,.16-.51,1,1,0,0,1,.45-.33,2.58,2.58,0,0,1,.72-.2c.27,0,.59-.09.94-.12v0a.79.79,0,0,0,0-.28.38.38,0,0,0-.14-.21.57.57,0,0,0-.26-.12,1.78,1.78,0,0,0-.44,0,2,2,0,0,0-.36,0l-.23.06-.08,0,0-.36.11,0a1.08,1.08,0,0,1,.25,0l.36,0a1.37,1.37,0,0,1,.92.25.89.89,0,0,1,.29.72v1.4a.53.53,0,0,0,0,.14.31.31,0,0,0,0,.1l.05.08.09.1.15.18Zm-.21-1.63c-.34,0-.64.07-.88.11a4.22,4.22,0,0,0-.6.16.92.92,0,0,0-.34.23.52.52,0,0,0-.11.33.68.68,0,0,0,0,.17.34.34,0,0,0,.13.17.81.81,0,0,0,.28.14,2.11,2.11,0,0,0,.49.05h.2l.26-.06a1.11,1.11,0,0,0,.27-.13.82.82,0,0,0,.25-.21Z">
      </path>
      <path class="cls-4"
        d="M164.82,174.29h-.24L163,171.38h.4l.72,1.37.29.55c.1.18.2.36.29.54l.3-.55.29-.55.73-1.36h.38Z"></path>
      <path class="cls-4" d="M168.83,171.06v-.65h.35v.64Zm0,3.23v-2.91h.35v2.91Z"></path>
      <path class="cls-4"
        d="M172.15,172.94a1.13,1.13,0,0,0,.14.51,1.07,1.07,0,0,0,.29.34,1.27,1.27,0,0,0,.37.18,1.9,1.9,0,0,0,.4.05l.44,0,.43-.09.35-.09.21-.07,0,.33-.53.14a4.8,4.8,0,0,1-.47.1,2.57,2.57,0,0,1-.45,0,2.08,2.08,0,0,1-.6-.09,1.6,1.6,0,0,1-.53-.32,1.47,1.47,0,0,1-.31-.48,1.62,1.62,0,0,1-.12-.66,1.56,1.56,0,0,1,.12-.62,1.35,1.35,0,0,1,.35-.47,1.64,1.64,0,0,1,.48-.28,1.66,1.66,0,0,1,.61-.11,1.43,1.43,0,0,1,.58.12,1.45,1.45,0,0,1,.48.34,1.49,1.49,0,0,1,.29.47,1.78,1.78,0,0,1,.11.69Zm2.3-.31a.85.85,0,0,0-.12-.37.87.87,0,0,0-.23-.31,1.12,1.12,0,0,0-.33-.22,1.07,1.07,0,0,0-.41-.08,1.4,1.4,0,0,0-.47.08,1.09,1.09,0,0,0-.74.89h2.3Z">
      </path>
      <path class="cls-4"
        d="M179.4,172l-.18-.17a.34.34,0,0,0-.11-.07l-.14-.05-.2,0-.25,0a1.43,1.43,0,0,0-.29.1,2.67,2.67,0,0,0-.52.33v2.18h-.35v-2.91h.35v.33l.19-.12.2-.1a1.75,1.75,0,0,1,.32-.12,1.49,1.49,0,0,1,.36-.05l.25,0a.9.9,0,0,1,.23.08.59.59,0,0,1,.17.1,1.73,1.73,0,0,1,.21.17Z">
      </path>
      <path class="cls-4"
        d="M184.4,174.29v-2a1,1,0,0,0,0-.26.36.36,0,0,0-.11-.2.69.69,0,0,0-.21-.13.9.9,0,0,0-.36-.06,1.77,1.77,0,0,0-.62.13.71.71,0,0,0-.16.07l-.17.1-.17.11-.15.1v2.13h-.35v-2.91h.35v.07a.71.71,0,0,0,0,.16.76.76,0,0,1,0,.16,2.61,2.61,0,0,1,.57-.3,2,2,0,0,1,.73-.15,1.06,1.06,0,0,1,.8.29.7.7,0,0,1,.19.29,1.14,1.14,0,0,1,.06.39v2Z">
      </path>
      <path class="cls-4" d="M187.38,171.06v-.65h.35v.64Zm0,3.23v-2.91h.35v2.91Z"></path>
      <path class="cls-4"
        d="M190.7,172.94a1.13,1.13,0,0,0,.14.51,1.07,1.07,0,0,0,.29.34,1.27,1.27,0,0,0,.37.18,1.9,1.9,0,0,0,.4.05l.44,0,.43-.09.35-.09.21-.07,0,.33-.53.14a4.8,4.8,0,0,1-.47.1,2.57,2.57,0,0,1-.45,0,2.08,2.08,0,0,1-.6-.09,1.6,1.6,0,0,1-.53-.32,1.47,1.47,0,0,1-.31-.48,1.62,1.62,0,0,1-.12-.66,1.56,1.56,0,0,1,.12-.62,1.35,1.35,0,0,1,.35-.47,1.64,1.64,0,0,1,.48-.28,1.66,1.66,0,0,1,.61-.11,1.43,1.43,0,0,1,.58.12,1.45,1.45,0,0,1,.48.34,1.49,1.49,0,0,1,.29.47,1.78,1.78,0,0,1,.11.69Zm2.3-.31a1.23,1.23,0,0,0-.12-.37,1,1,0,0,0-.23-.31,1.12,1.12,0,0,0-.33-.22,1.07,1.07,0,0,0-.41-.08,1.4,1.4,0,0,0-.47.08,1.09,1.09,0,0,0-.74.89H193Z">
      </path>
      <path class="cls-4"
        d="M198.78,173.4a1.66,1.66,0,0,1-.3.49,1.48,1.48,0,0,1-.49.34,2,2,0,0,1-1.16.06,3,3,0,0,1-.36-.14l-.11-.08-.11-.07v.29h-.35v-3.88h.34v1.25a1.73,1.73,0,0,1,.51-.25,1.77,1.77,0,0,1,.56-.09,1.62,1.62,0,0,1,.64.12,1.3,1.3,0,0,1,.5.32,1.42,1.42,0,0,1,.31.48,1.68,1.68,0,0,1,.11.6A1.54,1.54,0,0,1,198.78,173.4Zm-.25-.56a1.14,1.14,0,0,0-.08-.46,1,1,0,0,0-.23-.38,1.14,1.14,0,0,0-.39-.25,1.21,1.21,0,0,0-.52-.1,1.62,1.62,0,0,0-.54.1,1.72,1.72,0,0,0-.52.34v1.49l.06,0,.06.05.1.08.12.07a1.8,1.8,0,0,0,.31.14,1.64,1.64,0,0,0,.41.05,1.44,1.44,0,0,0,.53-.09,1.34,1.34,0,0,0,.38-.26,1.14,1.14,0,0,0,.23-.38,1.42,1.42,0,0,0,.08-.45Z">
      </path>
      <path class="cls-4" d="M201.35,174.29v-3.88h.35v3.88Z"></path>
      <path class="cls-4"
        d="M204.65,172.94a1.27,1.27,0,0,0,.14.51,1.21,1.21,0,0,0,.29.34,1.33,1.33,0,0,0,.38.18,1.75,1.75,0,0,0,.4.05l.43,0,.43-.09.36-.09.2-.07,0,.33c-.2.06-.37.11-.52.14l-.47.1a2.6,2.6,0,0,1-.46,0,2.08,2.08,0,0,1-.6-.09,1.56,1.56,0,0,1-.52-.32,1.49,1.49,0,0,1-.32-.48,1.62,1.62,0,0,1-.12-.66,1.56,1.56,0,0,1,.13-.62,1.23,1.23,0,0,1,.35-.47,1.47,1.47,0,0,1,.47-.28,1.66,1.66,0,0,1,.61-.11,1.4,1.4,0,0,1,.58.12,1.49,1.49,0,0,1,.49.34,1.7,1.7,0,0,1,.29.47,2,2,0,0,1,.11.69Zm2.31-.31a1.23,1.23,0,0,0-.12-.37,1.19,1.19,0,0,0-.23-.31,1.46,1.46,0,0,0-.33-.22,1.16,1.16,0,0,0-.42-.08,1.34,1.34,0,0,0-.46.08,1.12,1.12,0,0,0-.37.21,1,1,0,0,0-.25.31.85.85,0,0,0-.12.37H207Z">
      </path>
      <path class="cls-4"
        d="M212.38,173.81a1,1,0,0,1-.27.27,1.16,1.16,0,0,1-.45.2,2.15,2.15,0,0,1-.6.07,3.64,3.64,0,0,1-.48,0l-.41-.1a1.66,1.66,0,0,1-.33-.15,3.3,3.3,0,0,1-.33-.27l.25-.25a1.34,1.34,0,0,0,.51.34,2,2,0,0,0,.77.13,2.42,2.42,0,0,0,.47-.05,1.34,1.34,0,0,0,.4-.16.42.42,0,0,0,.22-.36.5.5,0,0,0,0-.16.49.49,0,0,0-.11-.14l-.11-.08a.52.52,0,0,0-.18-.07l-.27-.06-.42-.07-.41-.06-.29-.06-.21-.07-.17-.1a.64.64,0,0,1-.28-.51.56.56,0,0,1,.11-.35.76.76,0,0,1,.3-.23,2.33,2.33,0,0,1,1-.17,3.15,3.15,0,0,1,.44,0,1.48,1.48,0,0,1,.41.12.89.89,0,0,1,.25.14,1.35,1.35,0,0,1,.26.27l-.27.24a.89.89,0,0,0-.4-.34,1.64,1.64,0,0,0-.69-.12,3.19,3.19,0,0,0-.45,0,1.17,1.17,0,0,0-.37.1.32.32,0,0,0-.2.28.36.36,0,0,0,0,.11.26.26,0,0,0,.1.11.41.41,0,0,0,.11.07l.16.06.27.05.43.07.42.08.3.07a1,1,0,0,1,.23.08l.17.11a.69.69,0,0,1,.2.25.77.77,0,0,1,.06.3A.74.74,0,0,1,212.38,173.81Z">
      </path>
      <path class="cls-4" d="M214.66,174.29v-.65H215v.65Z"></path>
      <path class="cls-4"
        d="M220.75,173.88a1.16,1.16,0,0,1-.29.25,1.45,1.45,0,0,1-.38.16,1.85,1.85,0,0,1-.5.06,2.33,2.33,0,0,1-.59-.08,1.46,1.46,0,0,1-.52-.28,1.31,1.31,0,0,1-.36-.47,1.51,1.51,0,0,1,.37-1.83,1.63,1.63,0,0,1,.52-.28,2,2,0,0,1,.58-.09,1.67,1.67,0,0,1,.78.17,1.83,1.83,0,0,1,.55.5l-.3.18a1.45,1.45,0,0,0-.19-.23,1.12,1.12,0,0,0-.22-.16,1.07,1.07,0,0,0-.27-.09,1.25,1.25,0,0,0-.35,0,1.44,1.44,0,0,0-.46.08,1.25,1.25,0,0,0-.41.22,1,1,0,0,0-.28.37,1.21,1.21,0,0,0-.11.52,1.25,1.25,0,0,0,.11.53,1,1,0,0,0,.28.37,1.2,1.2,0,0,0,.4.22,1.89,1.89,0,0,0,.47.06,1.51,1.51,0,0,0,.39,0,1,1,0,0,0,.52-.31,2.35,2.35,0,0,0,.19-.25l.31.15A1.83,1.83,0,0,1,220.75,173.88Z">
      </path>
      <path class="cls-4"
        d="M226.39,173.4a1.5,1.5,0,0,1-.3.48,1.39,1.39,0,0,1-.5.34,1.8,1.8,0,0,1-.73.13,2,2,0,0,1-.71-.12,1.37,1.37,0,0,1-.5-.33,1.32,1.32,0,0,1-.31-.49,1.56,1.56,0,0,1-.1-.57,1.44,1.44,0,0,1,.13-.64,1.3,1.3,0,0,1,.35-.48,1.36,1.36,0,0,1,.51-.29,1.9,1.9,0,0,1,.63-.11,1.81,1.81,0,0,1,.63.11,1.4,1.4,0,0,1,.52.29,1.42,1.42,0,0,1,.35.48,1.62,1.62,0,0,1,.12.64A1.77,1.77,0,0,1,226.39,173.4Zm-.25-.56a1.1,1.1,0,0,0-.1-.49,1,1,0,0,0-.27-.38,1.05,1.05,0,0,0-.4-.23,1.37,1.37,0,0,0-.51-.08,1.44,1.44,0,0,0-.51.08,1.13,1.13,0,0,0-.4.23,1.31,1.31,0,0,0-.27.38,1.26,1.26,0,0,0-.1.49,1.38,1.38,0,0,0,.08.45,1.08,1.08,0,0,0,.64.64,1.42,1.42,0,0,0,.57.1,1.4,1.4,0,0,0,.56-.1,1,1,0,0,0,.39-.26,1,1,0,0,0,.24-.38,1.33,1.33,0,0,0,.07-.45Z">
      </path>
      <path class="cls-4"
        d="M233,174.29v-2.1a1.49,1.49,0,0,0,0-.21.54.54,0,0,0-.1-.18.44.44,0,0,0-.15-.1.76.76,0,0,0-.29,0,1.21,1.21,0,0,0-.48.12,1.46,1.46,0,0,0-.28.14,2.74,2.74,0,0,0-.31.23v2.15h-.35v-2.16a.62.62,0,0,0,0-.21.33.33,0,0,0-.1-.14.46.46,0,0,0-.17-.09.55.55,0,0,0-.24,0l-.23,0-.28.09a1.91,1.91,0,0,0-.28.15,2.86,2.86,0,0,0-.3.22v2.15h-.35v-2.91h.35v.36a1.34,1.34,0,0,1,.27-.17l.24-.13.31-.09.27,0a.9.9,0,0,1,.34.06.69.69,0,0,1,.27.14.46.46,0,0,1,.12.12.55.55,0,0,1,.09.14,2.57,2.57,0,0,1,.55-.33,1.51,1.51,0,0,1,.6-.13,1.19,1.19,0,0,1,.4.07.82.82,0,0,1,.28.19.53.53,0,0,1,.16.27.83.83,0,0,1,0,.32v2.12Z">
      </path>
    </g>
  </g>
</svg>